<svg width="280" height="280" viewBox="0 0 280 280" fill="none" xmlns="http://www.w3.org/2000/svg">
<mask id="mask0_728_67" style="mask-type:alpha" maskUnits="userSpaceOnUse" x="0" y="0" width="280" height="280">
<rect width="280" height="280" fill="#EBC6C6"/>
</mask>
<g mask="url(#mask0_728_67)">
<rect width="280" height="280" fill="#E2E2E2"/>
<path d="M141.218 19.5356C160.463 18.5733 179.477 26.7006 193.791 39.3179C210.268 54.3744 220.704 74.7625 221.757 97.2085C222.43 121.54 213.882 143.118 197.217 160.855C181.92 175.415 162.26 183.753 141.218 183.519C141.218 179.335 141.218 175.151 141.218 170.84C142.857 170.547 148.421 170.293 150.093 169.995C166.857 166.898 175.419 161.997 187.708 149.708C188.37 149.046 189.033 148.383 189.715 147.701C203.158 133.531 207.629 116.084 207.387 97.05C207.172 90.5926 205.817 84.8053 203.768 78.7049C203.472 77.8147 203.175 76.9245 202.87 76.0073C196.264 58.4147 182.634 46.3195 166.101 38.2902C158.153 34.8578 149.723 33.5311 141.218 32.2147C141.218 28.0306 141.218 23.8465 141.218 19.5356Z" fill="#AB232F"/>
<path d="M137.837 19.5361C137.837 23.7202 137.837 27.9043 137.837 32.2152C136.198 32.5078 136.198 32.5078 134.526 32.8062C125.934 34.3943 117.91 36.1316 109.943 39.8227C109.159 40.1855 108.374 40.5484 107.566 40.9222C91.6875 48.9291 80.9956 62.6473 75.0493 79.1808C70.3336 94.0016 70.3322 109.6 75.287 124.35C75.5834 125.24 75.8798 126.131 76.1851 127.048C82.791 144.64 96.4209 156.736 112.955 164.765C120.902 168.197 128.962 170.418 137.837 170.84C137.837 175.025 137.837 179.209 137.837 183.52C116.498 184.587 97.6971 174.59 82.0063 160.872C67.1757 146.933 58.1602 126.293 57.348 106.061C56.7286 81.2773 65.2132 59.7677 82.3134 41.7245C97.3489 27.3221 117.161 19.3063 137.837 19.5361Z" fill="#AB232F"/>
<path d="M82.0488 104.909C119.985 104.909 157.921 104.909 197.006 104.909C196.584 109.558 196.161 112.939 195.316 115.052C162.401 115.331 129.486 115.61 95.5732 115.897C96.8412 119.701 96.4185 118.433 97.2638 121.392C97.631 122.677 99.377 126.041 99.7996 126.886C129.925 126.886 160.051 126.886 191.089 126.886C184.165 140.734 173.84 150.42 159.322 155.929C143.666 160.868 127.273 160.439 112.532 152.878C106.744 149.509 100.88 145.468 96.4185 140.41C94.728 138.297 94.728 138.72 96.4185 138.72C102.16 138.72 103.181 138.72 110.788 138.72C115.437 141.678 115.437 142.101 120.509 144.214C128.777 148.921 141.187 148.321 150.298 146.562C157.31 144.524 163.31 141.415 169.112 137.029C167.713 137.03 167.713 137.03 166.285 137.031C157.491 137.034 148.698 137.011 139.905 136.961C135.384 136.937 130.864 136.922 126.343 136.928C121.98 136.933 117.687 137.065 113.324 137.029C111.66 137.02 109.943 137.029 108.252 137.029C105.92 137.039 103.399 137.058 101.068 137.029C100.035 137.045 100.008 137.013 98.9543 137.029C93.4601 137.029 95.1506 137.452 92.5386 135.099C85.7032 127.095 82.0488 115.321 82.0488 104.909Z" fill="#AA232F"/>
<path d="M174.174 55.054C186.964 64.8937 197.005 79.4826 197.006 95.6107C197.006 98.1465 197.006 99.8371 197.006 102.373C193.38 102.373 189.754 102.373 186.018 102.373C186.018 101.105 186.018 101.105 186.018 98.9918C186.018 96.8786 186.018 95.6107 185.172 90.5391C155.047 90.5391 124.921 90.5391 93.8827 90.5391C93.0374 94.3428 93.0376 98.5691 93.0374 102.373C89.4112 102.373 85.7849 102.373 82.0488 102.373C81.2926 87.7536 86.858 73.7825 96.3855 62.7836C96.9543 62.18 97.523 61.5764 98.1091 60.9544C98.6604 60.3682 99.2118 59.782 99.7798 59.178C107.336 51.8486 117.389 46.8702 127.694 44.8942C128.486 44.7405 129.278 44.5869 130.094 44.4286C146.154 42.1456 160.846 46.0466 174.174 55.054ZM120.932 58.4186C120.145 58.7477 119.358 59.0767 118.548 59.4158C113.738 61.7313 109.978 64.7546 106.192 68.4562C105.772 68.8632 105.353 69.2702 104.921 69.6895C101.573 73.1339 100.412 75.7906 98.1091 80.3958C125.445 80.3958 152.782 80.3958 180.946 80.3958C178.519 75.5416 176.81 72.2207 173.127 68.5619C172.696 68.1322 172.265 67.7025 171.821 67.2597C161.745 57.7747 149.25 54.4731 135.763 54.7733C130.471 55.0382 125.803 56.3638 120.932 58.4186Z" fill="#AB232F"/>
<g style="mix-blend-mode:difference">
<path d="M80.8047 251.008C76.7161 252.987 71.3776 253.977 64.7891 253.977C56.1953 253.977 49.4375 251.451 44.5156 246.398C39.5938 241.346 37.1328 234.615 37.1328 226.203C37.1328 217.245 39.8932 209.979 45.4141 204.406C50.9609 198.833 58.1484 196.047 66.9766 196.047C72.4453 196.047 77.0547 196.737 80.8047 198.117V210.266C77.0547 208.026 72.7839 206.906 67.9922 206.906C62.7318 206.906 58.487 208.56 55.2578 211.867C52.0286 215.174 50.4141 219.654 50.4141 225.305C50.4141 230.721 51.9375 235.044 54.9844 238.273C58.0312 241.477 62.1328 243.078 67.2891 243.078C72.2109 243.078 76.7161 241.88 80.8047 239.484V251.008ZM128.305 251.008C124.216 252.987 118.878 253.977 112.289 253.977C103.695 253.977 96.9375 251.451 92.0156 246.398C87.0938 241.346 84.6328 234.615 84.6328 226.203C84.6328 217.245 87.3932 209.979 92.9141 204.406C98.4609 198.833 105.648 196.047 114.477 196.047C119.945 196.047 124.555 196.737 128.305 198.117V210.266C124.555 208.026 120.284 206.906 115.492 206.906C110.232 206.906 105.987 208.56 102.758 211.867C99.5286 215.174 97.9141 219.654 97.9141 225.305C97.9141 230.721 99.4375 235.044 102.484 238.273C105.531 241.477 109.633 243.078 114.789 243.078C119.711 243.078 124.216 241.88 128.305 239.484V251.008ZM187.328 253H173.578L169.594 240.539H149.672L145.727 253H132.055L152.445 196.984H167.406L187.328 253ZM166.703 230.852L160.688 212.023C160.245 210.617 159.932 208.938 159.75 206.984H159.438C159.307 208.625 158.982 210.253 158.461 211.867L152.367 230.852H166.703ZM191.742 250.852V238.352C194.008 240.253 196.469 241.685 199.125 242.648C201.781 243.586 204.464 244.055 207.172 244.055C208.76 244.055 210.141 243.911 211.312 243.625C212.51 243.339 213.5 242.948 214.281 242.453C215.089 241.932 215.688 241.333 216.078 240.656C216.469 239.953 216.664 239.198 216.664 238.391C216.664 237.297 216.352 236.32 215.727 235.461C215.102 234.602 214.242 233.807 213.148 233.078C212.081 232.349 210.805 231.646 209.32 230.969C207.836 230.292 206.234 229.602 204.516 228.898C200.141 227.076 196.872 224.849 194.711 222.219C192.576 219.589 191.508 216.411 191.508 212.688C191.508 209.771 192.094 207.271 193.266 205.188C194.438 203.078 196.026 201.346 198.031 199.992C200.062 198.638 202.406 197.648 205.062 197.023C207.719 196.372 210.531 196.047 213.5 196.047C216.417 196.047 218.995 196.229 221.234 196.594C223.5 196.932 225.583 197.466 227.484 198.195V209.875C226.547 209.224 225.518 208.651 224.398 208.156C223.305 207.661 222.172 207.258 221 206.945C219.828 206.607 218.656 206.359 217.484 206.203C216.339 206.047 215.245 205.969 214.203 205.969C212.771 205.969 211.469 206.112 210.297 206.398C209.125 206.659 208.135 207.036 207.328 207.531C206.521 208.026 205.896 208.625 205.453 209.328C205.01 210.005 204.789 210.773 204.789 211.633C204.789 212.57 205.036 213.417 205.531 214.172C206.026 214.901 206.729 215.604 207.641 216.281C208.552 216.932 209.659 217.583 210.961 218.234C212.263 218.859 213.734 219.51 215.375 220.188C217.615 221.125 219.62 222.128 221.391 223.195C223.188 224.237 224.724 225.422 226 226.75C227.276 228.078 228.253 229.602 228.93 231.32C229.607 233.013 229.945 234.992 229.945 237.258C229.945 240.383 229.346 243.013 228.148 245.148C226.977 247.258 225.375 248.977 223.344 250.305C221.312 251.607 218.943 252.544 216.234 253.117C213.552 253.69 210.714 253.977 207.719 253.977C204.646 253.977 201.716 253.716 198.93 253.195C196.169 252.674 193.773 251.893 191.742 250.852Z" fill="#EAEAEA"/>
</g>
</g>
</svg>
