<svg width="280" height="280" viewBox="0 0 280 280" fill="none" xmlns="http://www.w3.org/2000/svg">
<mask id="mask0_722_3" style="mask-type:alpha" maskUnits="userSpaceOnUse" x="0" y="0" width="280" height="280">
<rect width="280" height="280" fill="#D9D9D9"/>
</mask>
<g mask="url(#mask0_722_3)">
<rect width="280" height="280" fill="#111111"/>
<path d="M240.568 105.75H190.795C189.886 99.3106 188.03 93.5909 185.227 88.5909C182.424 83.5151 178.826 79.197 174.432 75.6364C170.038 72.0757 164.962 69.3485 159.205 67.4545C153.523 65.5606 147.348 64.6136 140.682 64.6136C128.636 64.6136 118.144 67.6061 109.205 73.5909C100.265 79.5 93.3333 88.1364 88.4091 99.5C83.4849 110.788 81.0227 124.5 81.0227 140.636C81.0227 157.227 83.4849 171.167 88.4091 182.455C93.4091 193.742 100.379 202.265 109.318 208.023C118.258 213.78 128.598 216.659 140.341 216.659C146.932 216.659 153.03 215.788 158.636 214.045C164.318 212.303 169.356 209.765 173.75 206.432C178.144 203.023 181.78 198.894 184.659 194.045C187.614 189.197 189.659 183.667 190.795 177.455L240.568 177.682C239.28 188.364 236.061 198.667 230.909 208.591C225.833 218.439 218.977 227.265 210.341 235.068C201.78 242.795 191.553 248.932 179.659 253.477C167.841 257.947 154.47 260.182 139.545 260.182C118.788 260.182 100.227 255.485 83.8636 246.091C67.5758 236.697 54.697 223.098 45.2273 205.295C35.8333 187.492 31.1364 165.939 31.1364 140.636C31.1364 115.258 35.9091 93.6667 45.4545 75.8636C55 58.0606 67.9545 44.5 84.3182 35.1818C100.682 25.7879 119.091 21.0909 139.545 21.0909C153.03 21.0909 165.53 22.9848 177.045 26.7727C188.636 30.5606 198.902 36.0909 207.841 43.3636C216.78 50.5606 224.053 59.3864 229.659 69.8409C235.341 80.2954 238.977 92.2651 240.568 105.75Z" fill="#DCDCDC"/>
<g style="mix-blend-mode:difference">
<path d="M59.755 72.9602V62.8182H107.539V72.9602H89.7266V121H77.5675V72.9602H59.755ZM128.739 121.852C124.251 121.852 120.387 120.943 117.148 119.125C113.929 117.288 111.448 114.693 109.705 111.341C107.963 107.97 107.092 103.983 107.092 99.3807C107.092 94.892 107.963 90.9527 109.705 87.5625C111.448 84.1723 113.9 81.5303 117.063 79.6364C120.245 77.7424 123.976 76.7955 128.256 76.7955C131.135 76.7955 133.815 77.2595 136.296 78.1875C138.796 79.0966 140.974 80.4697 142.83 82.3068C144.705 84.1439 146.164 86.4545 147.205 89.2386C148.247 92.0038 148.768 95.2424 148.768 98.9545V102.278H111.921V94.7784H137.376C137.376 93.036 136.997 91.4924 136.239 90.1477C135.482 88.803 134.431 87.7519 133.086 86.9943C131.76 86.2178 130.217 85.8295 128.455 85.8295C126.618 85.8295 124.989 86.2557 123.569 87.108C122.167 87.9413 121.069 89.0682 120.273 90.4886C119.478 91.8902 119.071 93.4527 119.052 95.1761V102.307C119.052 104.466 119.45 106.331 120.245 107.903C121.059 109.475 122.205 110.688 123.683 111.54C125.16 112.392 126.912 112.818 128.938 112.818C130.283 112.818 131.514 112.629 132.631 112.25C133.749 111.871 134.705 111.303 135.501 110.545C136.296 109.788 136.902 108.86 137.319 107.761L148.512 108.5C147.944 111.189 146.779 113.538 145.018 115.545C143.275 117.534 141.022 119.087 138.256 120.205C135.51 121.303 132.338 121.852 128.739 121.852ZM165.998 77.3636L174.009 92.6193L182.219 77.3636H194.634L181.992 99.1818L194.975 121H182.617L174.009 105.915L165.543 121H153.043L165.998 99.1818L153.498 77.3636H165.998ZM225.032 77.3636V86.4545H198.754V77.3636H225.032ZM204.719 66.9091H216.822V107.591C216.822 108.708 216.992 109.58 217.333 110.205C217.674 110.811 218.147 111.237 218.754 111.483C219.379 111.729 220.098 111.852 220.913 111.852C221.481 111.852 222.049 111.805 222.617 111.71C223.185 111.597 223.621 111.511 223.924 111.455L225.827 120.46C225.221 120.65 224.369 120.867 223.271 121.114C222.172 121.379 220.837 121.54 219.265 121.597C216.348 121.71 213.791 121.322 211.594 120.432C209.416 119.542 207.721 118.159 206.509 116.284C205.297 114.409 204.701 112.042 204.719 109.182V66.9091ZM30.5256 218V159.818H69.7301V169.96H42.8267V183.824H67.7131V193.966H42.8267V207.858H69.8438V218H30.5256ZM95.3622 218.71C92.0478 218.71 89.0459 217.858 86.3565 216.153C83.6861 214.43 81.5649 211.902 79.9929 208.568C78.4399 205.216 77.6634 201.106 77.6634 196.239C77.6634 191.239 78.4683 187.081 80.0781 183.767C81.688 180.434 83.8281 177.943 86.4986 176.295C89.188 174.629 92.133 173.795 95.3338 173.795C97.777 173.795 99.813 174.212 101.442 175.045C103.089 175.86 104.415 176.883 105.419 178.114C106.442 179.326 107.218 180.519 107.749 181.693H108.118V159.818H120.192V218H108.26V211.011H107.749C107.18 212.223 106.375 213.426 105.334 214.619C104.311 215.794 102.976 216.769 101.328 217.545C99.6993 218.322 97.7107 218.71 95.3622 218.71ZM99.1974 209.08C101.148 209.08 102.796 208.549 104.141 207.489C105.504 206.409 106.546 204.903 107.266 202.972C108.004 201.04 108.374 198.777 108.374 196.182C108.374 193.587 108.014 191.333 107.294 189.42C106.574 187.508 105.533 186.03 104.169 184.989C102.805 183.947 101.148 183.426 99.1974 183.426C97.2088 183.426 95.5327 183.966 94.169 185.045C92.8054 186.125 91.7732 187.621 91.0724 189.534C90.3717 191.447 90.0213 193.663 90.0213 196.182C90.0213 198.72 90.3717 200.964 91.0724 202.915C91.7921 204.847 92.8243 206.362 94.169 207.46C95.5327 208.54 97.2088 209.08 99.1974 209.08ZM130.142 218V174.364H142.244V218H130.142ZM136.222 168.739C134.422 168.739 132.879 168.142 131.591 166.949C130.322 165.737 129.688 164.288 129.688 162.602C129.688 160.936 130.322 159.506 131.591 158.312C132.879 157.1 134.422 156.494 136.222 156.494C138.021 156.494 139.555 157.1 140.824 158.312C142.112 159.506 142.756 160.936 142.756 162.602C142.756 164.288 142.112 165.737 140.824 166.949C139.555 168.142 138.021 168.739 136.222 168.739ZM175.149 174.364V183.455H148.871V174.364H175.149ZM154.837 163.909H166.939V204.591C166.939 205.708 167.109 206.58 167.45 207.205C167.791 207.811 168.265 208.237 168.871 208.483C169.496 208.729 170.215 208.852 171.03 208.852C171.598 208.852 172.166 208.805 172.734 208.71C173.303 208.597 173.738 208.511 174.041 208.455L175.945 217.46C175.339 217.65 174.486 217.867 173.388 218.114C172.289 218.379 170.954 218.54 169.382 218.597C166.465 218.71 163.909 218.322 161.712 217.432C159.534 216.542 157.839 215.159 156.626 213.284C155.414 211.409 154.818 209.042 154.837 206.182V163.909ZM202.28 218.852C197.867 218.852 194.051 217.915 190.831 216.04C187.63 214.146 185.159 211.513 183.416 208.142C181.674 204.752 180.803 200.822 180.803 196.352C180.803 191.845 181.674 187.905 183.416 184.534C185.159 181.144 187.63 178.511 190.831 176.636C194.051 174.742 197.867 173.795 202.28 173.795C206.693 173.795 210.5 174.742 213.7 176.636C216.92 178.511 219.401 181.144 221.143 184.534C222.886 187.905 223.757 191.845 223.757 196.352C223.757 200.822 222.886 204.752 221.143 208.142C219.401 211.513 216.92 214.146 213.7 216.04C210.5 217.915 206.693 218.852 202.28 218.852ZM202.337 209.477C204.344 209.477 206.02 208.909 207.365 207.773C208.71 206.617 209.723 205.045 210.405 203.057C211.106 201.068 211.456 198.805 211.456 196.267C211.456 193.729 211.106 191.466 210.405 189.477C209.723 187.489 208.71 185.917 207.365 184.761C206.02 183.606 204.344 183.028 202.337 183.028C200.31 183.028 198.606 183.606 197.223 184.761C195.859 185.917 194.827 187.489 194.126 189.477C193.445 191.466 193.104 193.729 193.104 196.267C193.104 198.805 193.445 201.068 194.126 203.057C194.827 205.045 195.859 206.617 197.223 207.773C198.606 208.909 200.31 209.477 202.337 209.477ZM231.626 218V174.364H243.359V181.977H243.814C244.609 179.269 245.945 177.223 247.82 175.841C249.695 174.439 251.854 173.739 254.297 173.739C254.903 173.739 255.556 173.777 256.257 173.852C256.958 173.928 257.573 174.032 258.104 174.165V184.903C257.536 184.733 256.75 184.581 255.746 184.449C254.742 184.316 253.823 184.25 252.99 184.25C251.21 184.25 249.619 184.638 248.217 185.415C246.835 186.172 245.736 187.233 244.922 188.597C244.126 189.96 243.729 191.532 243.729 193.312V218H231.626Z" fill="#E1FA8E"/>
</g>
</g>
</svg>
