<svg width="280" height="280" viewBox="0 0 280 280" fill="none" xmlns="http://www.w3.org/2000/svg">
<mask id="mask0_722_3" style="mask-type:alpha" maskUnits="userSpaceOnUse" x="0" y="0" width="280" height="280">
<rect width="280" height="280" fill="#EBC6C6"/>
</mask>
<g mask="url(#mask0_722_3)">
<rect width="280" height="280" fill="#DEDEDE"/>
<path d="M239.568 106.75H189.795C188.886 100.311 187.03 94.5909 184.227 89.5909C181.424 84.5151 177.826 80.197 173.432 76.6364C169.038 73.0757 163.962 70.3485 158.205 68.4545C152.523 66.5606 146.348 65.6136 139.682 65.6136C127.636 65.6136 117.144 68.6061 108.205 74.5909C99.2652 80.5 92.3333 89.1364 87.4091 100.5C82.4849 111.788 80.0227 125.5 80.0227 141.636C80.0227 158.227 82.4849 172.167 87.4091 183.455C92.4091 194.742 99.3788 203.265 108.318 209.023C117.258 214.78 127.598 217.659 139.341 217.659C145.932 217.659 152.03 216.788 157.636 215.045C163.318 213.303 168.356 210.765 172.75 207.432C177.144 204.023 180.78 199.894 183.659 195.045C186.614 190.197 188.659 184.667 189.795 178.455L239.568 178.682C238.28 189.364 235.061 199.667 229.909 209.591C224.833 219.439 217.977 228.265 209.341 236.068C200.78 243.795 190.553 249.932 178.659 254.477C166.841 258.947 153.47 261.182 138.545 261.182C117.788 261.182 99.2273 256.485 82.8636 247.091C66.5758 237.697 53.697 224.098 44.2273 206.295C34.8333 188.492 30.1364 166.939 30.1364 141.636C30.1364 116.258 34.9091 94.6667 44.4545 76.8636C54 59.0606 66.9545 45.5 83.3182 36.1818C99.6818 26.7879 118.091 22.0909 138.545 22.0909C152.03 22.0909 164.53 23.9848 176.045 27.7727C187.636 31.5606 197.902 37.0909 206.841 44.3636C215.78 51.5606 223.053 60.3864 228.659 70.8409C234.341 81.2954 237.977 93.2651 239.568 106.75Z" fill="#1B1B1B"/>
<g style="mix-blend-mode:difference">
<path d="M56.755 73.9602V63.8182H104.539V73.9602H86.7266V122H74.5675V73.9602H56.755ZM125.739 122.852C121.251 122.852 117.387 121.943 114.148 120.125C110.929 118.288 108.448 115.693 106.705 112.341C104.963 108.97 104.092 104.983 104.092 100.381C104.092 95.892 104.963 91.9527 106.705 88.5625C108.448 85.1723 110.9 82.5303 114.063 80.6364C117.245 78.7424 120.976 77.7955 125.256 77.7955C128.135 77.7955 130.815 78.2595 133.296 79.1875C135.796 80.0966 137.974 81.4697 139.83 83.3068C141.705 85.1439 143.164 87.4545 144.205 90.2386C145.247 93.0038 145.768 96.2424 145.768 99.9545V103.278H108.921V95.7784H134.376C134.376 94.036 133.997 92.4924 133.239 91.1477C132.482 89.803 131.431 88.7519 130.086 87.9943C128.76 87.2178 127.217 86.8295 125.455 86.8295C123.618 86.8295 121.989 87.2557 120.569 88.108C119.167 88.9413 118.069 90.0682 117.273 91.4886C116.478 92.8902 116.071 94.4527 116.052 96.1761V103.307C116.052 105.466 116.45 107.331 117.245 108.903C118.059 110.475 119.205 111.688 120.683 112.54C122.16 113.392 123.912 113.818 125.938 113.818C127.283 113.818 128.514 113.629 129.631 113.25C130.749 112.871 131.705 112.303 132.501 111.545C133.296 110.788 133.902 109.86 134.319 108.761L145.512 109.5C144.944 112.189 143.779 114.538 142.018 116.545C140.275 118.534 138.022 120.087 135.256 121.205C132.51 122.303 129.338 122.852 125.739 122.852ZM162.998 78.3636L171.009 93.6193L179.219 78.3636H191.634L178.992 100.182L191.975 122H179.617L171.009 106.915L162.543 122H150.043L162.998 100.182L150.498 78.3636H162.998ZM222.032 78.3636V87.4545H195.754V78.3636H222.032ZM201.719 67.9091H213.822V108.591C213.822 109.708 213.992 110.58 214.333 111.205C214.674 111.811 215.147 112.237 215.754 112.483C216.379 112.729 217.098 112.852 217.913 112.852C218.481 112.852 219.049 112.805 219.617 112.71C220.185 112.597 220.621 112.511 220.924 112.455L222.827 121.46C222.221 121.65 221.369 121.867 220.271 122.114C219.172 122.379 217.837 122.54 216.265 122.597C213.348 122.71 210.791 122.322 208.594 121.432C206.416 120.542 204.721 119.159 203.509 117.284C202.297 115.409 201.701 113.042 201.719 110.182V67.9091ZM27.5256 219V160.818H66.7301V170.96H39.8267V184.824H64.7131V194.966H39.8267V208.858H66.8438V219H27.5256ZM92.3622 219.71C89.0478 219.71 86.0459 218.858 83.3565 217.153C80.6861 215.43 78.5649 212.902 76.9929 209.568C75.4399 206.216 74.6634 202.106 74.6634 197.239C74.6634 192.239 75.4683 188.081 77.0781 184.767C78.688 181.434 80.8281 178.943 83.4986 177.295C86.188 175.629 89.133 174.795 92.3338 174.795C94.777 174.795 96.813 175.212 98.4418 176.045C100.089 176.86 101.415 177.883 102.419 179.114C103.442 180.326 104.218 181.519 104.749 182.693H105.118V160.818H117.192V219H105.26V212.011H104.749C104.18 213.223 103.375 214.426 102.334 215.619C101.311 216.794 99.9759 217.769 98.3281 218.545C96.6993 219.322 94.7107 219.71 92.3622 219.71ZM96.1974 210.08C98.1482 210.08 99.7959 209.549 101.141 208.489C102.504 207.409 103.546 205.903 104.266 203.972C105.004 202.04 105.374 199.777 105.374 197.182C105.374 194.587 105.014 192.333 104.294 190.42C103.574 188.508 102.533 187.03 101.169 185.989C99.8054 184.947 98.1482 184.426 96.1974 184.426C94.2088 184.426 92.5327 184.966 91.169 186.045C89.8054 187.125 88.7732 188.621 88.0724 190.534C87.3717 192.447 87.0213 194.663 87.0213 197.182C87.0213 199.72 87.3717 201.964 88.0724 203.915C88.7921 205.847 89.8243 207.362 91.169 208.46C92.5327 209.54 94.2088 210.08 96.1974 210.08ZM127.142 219V175.364H139.244V219H127.142ZM133.222 169.739C131.422 169.739 129.879 169.142 128.591 167.949C127.322 166.737 126.688 165.288 126.688 163.602C126.688 161.936 127.322 160.506 128.591 159.312C129.879 158.1 131.422 157.494 133.222 157.494C135.021 157.494 136.555 158.1 137.824 159.312C139.112 160.506 139.756 161.936 139.756 163.602C139.756 165.288 139.112 166.737 137.824 167.949C136.555 169.142 135.021 169.739 133.222 169.739ZM172.149 175.364V184.455H145.871V175.364H172.149ZM151.837 164.909H163.939V205.591C163.939 206.708 164.109 207.58 164.45 208.205C164.791 208.811 165.265 209.237 165.871 209.483C166.496 209.729 167.215 209.852 168.03 209.852C168.598 209.852 169.166 209.805 169.734 209.71C170.303 209.597 170.738 209.511 171.041 209.455L172.945 218.46C172.339 218.65 171.486 218.867 170.388 219.114C169.289 219.379 167.954 219.54 166.382 219.597C163.465 219.71 160.909 219.322 158.712 218.432C156.534 217.542 154.839 216.159 153.626 214.284C152.414 212.409 151.818 210.042 151.837 207.182V164.909ZM199.28 219.852C194.867 219.852 191.051 218.915 187.831 217.04C184.63 215.146 182.159 212.513 180.416 209.142C178.674 205.752 177.803 201.822 177.803 197.352C177.803 192.845 178.674 188.905 180.416 185.534C182.159 182.144 184.63 179.511 187.831 177.636C191.051 175.742 194.867 174.795 199.28 174.795C203.693 174.795 207.5 175.742 210.7 177.636C213.92 179.511 216.401 182.144 218.143 185.534C219.886 188.905 220.757 192.845 220.757 197.352C220.757 201.822 219.886 205.752 218.143 209.142C216.401 212.513 213.92 215.146 210.7 217.04C207.5 218.915 203.693 219.852 199.28 219.852ZM199.337 210.477C201.344 210.477 203.02 209.909 204.365 208.773C205.71 207.617 206.723 206.045 207.405 204.057C208.106 202.068 208.456 199.805 208.456 197.267C208.456 194.729 208.106 192.466 207.405 190.477C206.723 188.489 205.71 186.917 204.365 185.761C203.02 184.606 201.344 184.028 199.337 184.028C197.31 184.028 195.606 184.606 194.223 185.761C192.859 186.917 191.827 188.489 191.126 190.477C190.445 192.466 190.104 194.729 190.104 197.267C190.104 199.805 190.445 202.068 191.126 204.057C191.827 206.045 192.859 207.617 194.223 208.773C195.606 209.909 197.31 210.477 199.337 210.477ZM228.626 219V175.364H240.359V182.977H240.814C241.609 180.269 242.945 178.223 244.82 176.841C246.695 175.439 248.854 174.739 251.297 174.739C251.903 174.739 252.556 174.777 253.257 174.852C253.958 174.928 254.573 175.032 255.104 175.165V185.903C254.536 185.733 253.75 185.581 252.746 185.449C251.742 185.316 250.823 185.25 249.99 185.25C248.21 185.25 246.619 185.638 245.217 186.415C243.835 187.172 242.736 188.233 241.922 189.597C241.126 190.96 240.729 192.532 240.729 194.312V219H228.626Z" fill="#C2B18E"/>
</g>
</g>
</svg>
