<svg width="65" height="65" viewBox="0 0 65 65" fill="none" xmlns="http://www.w3.org/2000/svg">
<path d="M4.86176e-05 32.5C5.01868e-05 14.5508 14.5508 4.1366e-05 32.5 4.29351e-05C50.4493 4.45043e-05 65 14.5508 65 32.5C65 50.4493 50.4493 65 32.5 65C14.5508 65 4.70484e-05 50.4493 4.86176e-05 32.5Z" fill="#880F0F"/>
<path d="M16.4949 28.0734L31.9467 50.0638L47.6665 28.0734L16.4949 28.0734Z" fill="#D0D0D0"/>
<path d="M26.394 16.225L37.4243 16.225L34.2728 17.3333L31.8797 28.3636L29.5456 17.3333L26.394 16.225Z" fill="#D0D0D0"/>
<path d="M31.9822 28.0735L47.6668 28.0736L39.7487 21.6668L31.9822 28.0735Z" fill="#D0D0D0"/>
<path d="M16.4951 28.0734L31.778 28.0734L24.2961 21.6667L16.4951 28.0734Z" fill="#D0D0D0"/>
</svg>
