<svg width="89" height="89" viewBox="0 0 89 89" fill="none" xmlns="http://www.w3.org/2000/svg">
<path d="M44.5 6.73447e-05C69.0766 6.76377e-05 88.9999 19.9234 88.9999 44.5C88.9999 69.0767 69.0766 89 44.5 89C19.9233 89 2.37583e-07 69.0767 5.30657e-07 44.5C8.2373e-07 19.9234 19.9233 6.70516e-05 44.5 6.73447e-05Z" fill="#880F0F"/>
<path d="M50.561 22.5858L20.451 43.7429L50.561 65.2669L50.561 22.5858Z" fill="#D0D0D0"/>
<path d="M66.784 36.1392L66.784 51.2422L65.2665 46.9271L50.1635 43.6503L65.2665 40.4544L66.784 36.1392Z" fill="#D0D0D0"/>
<path d="M50.561 43.7906L50.5609 65.2664L59.3333 54.4248L50.561 43.7906Z" fill="#D0D0D0"/>
<path d="M50.5613 22.5857L50.5613 43.5115L59.3336 33.267L50.5613 22.5857Z" fill="#D0D0D0"/>
</svg>
