<svg width="65" height="65" viewBox="0 0 65 65" fill="none" xmlns="http://www.w3.org/2000/svg">
<path d="M65 32.5C65 50.4492 50.4492 65 32.5 65C14.5507 65 0 50.4492 0 32.5C0 14.5507 14.5507 0 32.5 0C50.4492 0 65 14.5507 65 32.5Z" fill="#E7E7E7"/>
<path d="M48.5051 36.9266L33.0533 14.9362L17.3335 36.9266L48.5051 36.9266Z" fill="#121212"/>
<path d="M38.606 48.775L27.5757 48.775L30.7272 47.6667L33.1203 36.6364L35.4544 47.6667L38.606 48.775Z" fill="#121212"/>
<path d="M33.0178 36.9265L17.3332 36.9265L25.2513 43.3332L33.0178 36.9265Z" fill="#121212"/>
<path d="M48.5049 36.9266L33.222 36.9266L40.7039 43.3333L48.5049 36.9266Z" fill="#121212"/>
</svg>
