<svg width="37" height="37" viewBox="0 0 37 37" fill="none" xmlns="http://www.w3.org/2000/svg">
<path d="M18.5 37C8.28275 37 2.54476e-05 28.7172 2.58942e-05 18.5C2.63408e-05 8.28272 8.28275 -1.25527e-06 18.5 -8.0866e-07C28.7173 -3.62049e-07 37 8.28273 37 18.5C37 28.7172 28.7173 37 18.5 37Z" fill="#D0D0D0"/>
<path d="M15.9802 27.6105L28.4978 18.8149L15.9802 9.86668L15.9802 27.6105Z" fill="#880F0F"/>
<path d="M9.23581 21.9757L9.23583 15.697L9.86669 17.4909L16.1455 18.8531L9.86669 20.1818L9.23581 21.9757Z" fill="#880F0F"/>
<path d="M15.9802 18.7948L15.9803 9.86669L12.3333 14.3739L15.9802 18.7948Z" fill="#880F0F"/>
<path d="M15.9803 27.6105L15.9803 18.911L12.3334 23.17L15.9803 27.6105Z" fill="#880F0F"/>
</svg>
