<svg width="89" height="89" viewBox="0 0 89 89" fill="none" xmlns="http://www.w3.org/2000/svg">
<path d="M44.5 88.9999C19.9234 88.9999 6.94883e-05 69.0766 6.91952e-05 44.5C6.89021e-05 19.9233 19.9234 8.2373e-07 44.5 5.30657e-07C69.0767 2.37583e-07 89 19.9233 89 44.5C89 69.0766 69.0767 88.9999 44.5 88.9999Z" fill="#880F0F"/>
<path d="M38.439 66.4142L68.549 45.2571L38.439 23.7331L38.439 66.4142Z" fill="#D0D0D0"/>
<path d="M22.216 52.8608L22.216 37.7578L23.7335 42.0729L38.8365 45.3497L23.7335 48.5456L22.216 52.8608Z" fill="#D0D0D0"/>
<path d="M38.439 45.2094L38.4391 23.7336L29.6667 34.5752L38.439 45.2094Z" fill="#D0D0D0"/>
<path d="M38.4387 66.4143L38.4387 45.4885L29.6664 55.733L38.4387 66.4143Z" fill="#D0D0D0"/>
</svg>
