<svg width="360" height="457" viewBox="0 0 360 457" fill="none" xmlns="http://www.w3.org/2000/svg">
<path d="M5 5L354.826 5V452H5L5 5Z" fill="white"/>
<path fill-rule="evenodd" clip-rule="evenodd" d="M0 0L359.826 0V457H0L0 0ZM5 5L5 452H354.826V5L5 5Z" fill="white"/>
<path d="M5 5L354.826 5V452H5L5 5Z" fill="white"/>
<path fill-rule="evenodd" clip-rule="evenodd" d="M0 0L359.826 0V457H0L0 0ZM5 5L5 452H354.826V5L5 5Z" fill="white"/>
<path d="M219.813 159.225L275.09 198.067L219.813 237.582L219.813 159.225Z" fill="#880F0F"/>
<path d="M191.006 184.109L191.006 211.836L193.792 203.914L221.519 197.898L193.792 192.031L191.006 184.109Z" fill="#282828"/>
<path d="M219.813 198.156L219.813 237.583L203.708 217.679L219.813 198.156Z" fill="#880F0F"/>
<path d="M219.813 159.225L219.813 197.642L203.708 178.835L219.813 159.225Z" fill="#880F0F"/>
<path d="M140.568 157.225L85.291 196.067L140.569 235.582L140.568 157.225Z" fill="#880F0F"/>
<path d="M167.902 181.917L167.902 209.644L165.116 201.722L137.389 195.706L165.116 189.839L167.902 181.917Z" fill="#282828"/>
<path d="M140.569 196.156L140.569 235.583L156.673 215.679L140.569 196.156Z" fill="#880F0F"/>
<path d="M140.569 157.225L140.569 195.642L156.673 176.835L140.569 157.225Z" fill="#880F0F"/>
<path d="M241.341 303.299L178.618 214.034L114.807 303.3L241.341 303.299Z" fill="#880F0F"/>
<path d="M201.159 351.396L156.384 351.395L169.176 346.897L178.891 302.122L188.366 346.897L201.159 351.396Z" fill="#282828"/>
<path d="M178.474 303.299L114.807 303.299L146.948 329.306L178.474 303.299Z" fill="#880F0F"/>
<path d="M241.341 303.3L179.303 303.3L209.674 329.306L241.341 303.3Z" fill="#880F0F"/>
<path d="M32.14 70.9998V50.1798H39.46C45.52 50.1798 50.5 45.3198 50.5 39.2598C50.5 36.3198 49.3 33.6198 47.26 31.5198C45.16 29.4198 42.4 28.2798 39.46 28.2798H24.16V49.6398V70.9998H32.14ZM32.14 42.3198V36.1398H39.46C41.08 36.1398 42.46 37.5798 42.46 39.2598C42.46 40.9398 41.14 42.3198 39.46 42.3198H32.14Z" fill="#880F0F"/>
<path d="M38.0195 101V97.0398H28.2395V90.6798H36.9995V86.6898H28.2395V83.5398H38.2895V79.6398H24.2195L24.2195 101H38.0195Z" fill="#282828"/>
<path d="M41.4095 131L33.4595 120.05C35.3195 119.15 36.5795 117.23 36.5795 115.1C36.5795 113.66 36.0095 112.31 34.9595 111.26C33.9095 110.21 32.5595 109.64 31.1195 109.64H23.4695V131H27.3695V120.56H29.0795L36.6695 131H41.4095ZM27.3695 116.66V113.54H31.1195C31.9595 113.54 32.6795 114.23 32.6795 115.1C32.6795 115.97 31.9595 116.66 31.1195 116.66H27.3695Z" fill="#282828"/>
<path d="M33.7295 161.33C35.4695 161.33 37.1795 160.94 38.7095 160.16C40.2695 159.38 41.5895 158.27 42.6395 156.86L43.1195 156.26L39.9395 153.92L39.4895 154.49C38.1095 156.32 36.0095 157.37 33.7295 157.37C29.7695 157.37 26.5295 154.13 26.5295 150.14C26.5295 146.18 29.7695 142.97 33.7295 142.97C36.0395 142.97 38.1395 144.02 39.4895 145.85L39.9395 146.45L43.1495 144.08L42.6695 143.48C41.6495 142.1 40.2695 140.93 38.7395 140.18C37.2095 139.4 35.4695 138.98 33.7295 138.98C27.5795 138.98 22.5395 143.99 22.5395 150.14C22.5395 151.67 22.8395 153.11 23.4395 154.49C23.9795 155.84 24.7895 157.04 25.8395 158.06C26.8595 159.08 28.0595 159.89 29.3795 160.46C30.7595 161.03 32.2295 161.33 33.7295 161.33Z" fill="#282828"/>
<path d="M33.7595 191L33.7595 180.44L41.4695 169.64H36.5795L31.7495 176.39L26.9195 169.64H21.9995L29.7095 180.44V191H33.7595Z" fill="#282828"/>
<path d="M329.57 389.609L329.57 410.429L322.25 410.429C316.19 410.429 311.21 415.289 311.21 421.349C311.21 424.289 312.41 426.989 314.45 429.089C316.55 431.189 319.31 432.329 322.25 432.329L337.55 432.329L337.55 389.609L329.57 389.609ZM329.57 418.289L329.57 424.469L322.25 424.469C320.63 424.469 319.25 423.029 319.25 421.349C319.25 419.669 320.57 418.289 322.25 418.289L329.57 418.289Z" fill="#880F0F"/>
<path d="M323.75 359.609L323.75 363.569L333.53 363.569L333.53 369.929L324.77 369.929L324.77 373.919L333.53 373.919L333.53 377.069L323.48 377.069L323.48 380.969L337.55 380.969L337.55 359.609L323.75 359.609Z" fill="#282828"/>
<path d="M320.36 329.609L328.31 340.559C326.45 341.459 325.19 343.379 325.19 345.509C325.19 346.949 325.76 348.299 326.81 349.349C327.86 350.399 329.21 350.969 330.65 350.969L338.3 350.969L338.3 329.609L334.4 329.609L334.4 340.049L332.69 340.049L325.1 329.609L320.36 329.609ZM334.4 343.949L334.4 347.069L330.65 347.069C329.81 347.069 329.09 346.379 329.09 345.509C329.09 344.639 329.81 343.949 330.65 343.949L334.4 343.949Z" fill="#282828"/>
<path d="M328.04 299.279C326.3 299.279 324.59 299.669 323.06 300.449C321.5 301.229 320.18 302.339 319.13 303.749L318.65 304.349L321.83 306.689L322.28 306.119C323.66 304.289 325.76 303.239 328.04 303.239C332 303.239 335.24 306.479 335.24 310.469C335.24 314.429 332 317.639 328.04 317.639C325.73 317.639 323.63 316.589 322.28 314.759L321.83 314.159L318.62 316.529L319.1 317.129C320.12 318.509 321.5 319.679 323.03 320.429C324.56 321.209 326.3 321.629 328.04 321.629C334.19 321.629 339.23 316.619 339.23 310.469C339.23 308.939 338.93 307.499 338.33 306.119C337.79 304.769 336.98 303.569 335.93 302.549C334.91 301.529 333.71 300.719 332.39 300.149C331.01 299.579 329.54 299.279 328.04 299.279Z" fill="#282828"/>
<path d="M328.01 269.609L328.01 280.169L320.3 290.969L325.19 290.969L330.02 284.219L334.85 290.969L339.77 290.969L332.06 280.169L332.06 269.609L328.01 269.609Z" fill="#282828"/>
</svg>
