<svg width="360" height="457" viewBox="0 0 360 457" fill="none" xmlns="http://www.w3.org/2000/svg">
<g clip-path="url(#clip0_436_30)">
<path d="M5 5H354.826V452H5V5Z" fill="white"/>
<path fill-rule="evenodd" clip-rule="evenodd" d="M0 0H359.826V457H0V0ZM5 5V452H354.826V5H5Z" fill="white"/>
<path d="M5 5H354.826V452H5V5Z" fill="white"/>
<path fill-rule="evenodd" clip-rule="evenodd" d="M0 0H359.826V457H0V0ZM5 5V452H354.826V5H5Z" fill="white"/>
<rect width="238" height="359" transform="matrix(-1 0 0 1 299 50)" fill="#EFEFEF"/>
<path d="M249.119 252.019L180.653 154L111 252.02L249.119 252.019Z" fill="#880F0F"/>
<path d="M205.307 304L156.297 303.999L170.406 299.118L180.933 250.535L191.304 299.118L205.307 304Z" fill="#282828"/>
<path d="M180.802 252.02H111L146.238 280.238L180.802 252.02Z" fill="#880F0F"/>
<path d="M249.119 252.02H181.544L214.626 280.238L249.119 252.02Z" fill="#880F0F"/>
<path d="M32.1399 70.9998V50.1798H39.4599C45.5199 50.1798 50.4999 45.3198 50.4999 39.2598C50.4999 36.3198 49.2999 33.6198 47.2599 31.5198C45.1599 29.4198 42.3999 28.2798 39.4599 28.2798H24.1599V49.6398V70.9998H32.1399ZM32.1399 42.3198V36.1398H39.4599C41.0799 36.1398 42.4599 37.5798 42.4599 39.2598C42.4599 40.9398 41.1399 42.3198 39.4599 42.3198H32.1399Z" fill="#880F0F"/>
<path d="M38.0195 101V97.0396H28.2395V90.6796H36.9995V86.6896H28.2395V83.5396H38.2895V79.6396H24.2195V101H38.0195Z" fill="#282828"/>
<path d="M41.4095 131L33.4595 120.05C35.3195 119.15 36.5795 117.23 36.5795 115.1C36.5795 113.66 36.0095 112.31 34.9595 111.26C33.9095 110.21 32.5595 109.64 31.1195 109.64H23.4695V131H27.3695V120.56H29.0795L36.6695 131H41.4095ZM27.3695 116.66V113.54H31.1195C31.9595 113.54 32.6795 114.23 32.6795 115.1C32.6795 115.97 31.9595 116.66 31.1195 116.66H27.3695Z" fill="#282828"/>
<path d="M33.7296 161.33C35.4696 161.33 37.1796 160.94 38.7096 160.16C40.2696 159.38 41.5896 158.27 42.6396 156.86L43.1196 156.26L39.9396 153.92L39.4895 154.49C38.1095 156.32 36.0096 157.37 33.7296 157.37C29.7696 157.37 26.5296 154.13 26.5296 150.14C26.5296 146.18 29.7696 142.97 33.7296 142.97C36.0396 142.97 38.1395 144.02 39.4895 145.85L39.9396 146.45L43.1496 144.08L42.6695 143.48C41.6495 142.1 40.2695 140.93 38.7395 140.18C37.2095 139.4 35.4696 138.98 33.7296 138.98C27.5796 138.98 22.5396 143.99 22.5396 150.14C22.5396 151.67 22.8396 153.11 23.4396 154.49C23.9796 155.84 24.7896 157.04 25.8396 158.06C26.8596 159.08 28.0596 159.89 29.3796 160.46C30.7596 161.03 32.2296 161.33 33.7296 161.33Z" fill="#282828"/>
<path d="M33.7595 191V180.44L41.4695 169.64H36.5795L31.7495 176.39L26.9195 169.64H21.9995L29.7095 180.44V191H33.7595Z" fill="#282828"/>
<path d="M329.57 389.609V410.429H322.25C316.19 410.429 311.21 415.289 311.21 421.349C311.21 424.289 312.41 426.989 314.45 429.089C316.55 431.189 319.31 432.329 322.25 432.329H337.55V389.609H329.57ZM329.57 418.289V424.469H322.25C320.63 424.469 319.25 423.029 319.25 421.349C319.25 419.669 320.57 418.289 322.25 418.289H329.57Z" fill="#880F0F"/>
<path d="M323.75 359.609V363.569H333.53V369.929H324.77V373.919H333.53V377.069H323.48V380.969H337.55V359.609H323.75Z" fill="#282828"/>
<path d="M320.36 329.609L328.31 340.559C326.45 341.459 325.19 343.379 325.19 345.509C325.19 346.949 325.76 348.299 326.81 349.349C327.86 350.399 329.21 350.969 330.65 350.969H338.3V329.609H334.4V340.049H332.69L325.1 329.609H320.36ZM334.4 343.949V347.069H330.65C329.81 347.069 329.09 346.379 329.09 345.509C329.09 344.639 329.81 343.949 330.65 343.949H334.4Z" fill="#282828"/>
<path d="M328.42 299C326.68 299 324.97 299.39 323.44 300.17C321.88 300.95 320.56 302.06 319.51 303.47L319.03 304.07L322.21 306.41L322.66 305.84C324.04 304.01 326.14 302.96 328.42 302.96C332.38 302.96 335.62 306.2 335.62 310.19C335.62 314.15 332.38 317.36 328.42 317.36C326.11 317.36 324.01 316.31 322.66 314.48L322.21 313.88L319 316.25L319.48 316.85C320.5 318.23 321.88 319.4 323.41 320.15C324.94 320.93 326.68 321.35 328.42 321.35C334.57 321.35 339.61 316.34 339.61 310.19C339.61 308.66 339.31 307.22 338.71 305.84C338.17 304.49 337.36 303.29 336.31 302.27C335.29 301.25 334.09 300.44 332.77 299.87C331.39 299.3 329.92 299 328.42 299Z" fill="#282828"/>
<path d="M327.71 270V280.56L320 291.36H324.89L329.72 284.61L334.55 291.36H339.47L331.76 280.56V270H327.71Z" fill="#282828"/>
</g>
<defs>
<clipPath id="clip0_436_30">
<rect width="360" height="457" fill="white"/>
</clipPath>
</defs>
</svg>
