<svg width="360" height="457" viewBox="0 0 360 457" fill="none" xmlns="http://www.w3.org/2000/svg">
<g clip-path="url(#clip0_730_75)">
<path d="M5 5H354.826V452H5V5Z" fill="white"/>
<path fill-rule="evenodd" clip-rule="evenodd" d="M0 0H359.826V457H0V0ZM5 5V452H354.826V5H5Z" fill="white"/>
<path d="M5 5H354.826V452H5V5Z" fill="white"/>
<path fill-rule="evenodd" clip-rule="evenodd" d="M0 0H359.826V457H0V0ZM5 5V452H354.826V5H5Z" fill="white"/>
<path d="M165 185L190 185L182.857 183.174L177.433 165L172.143 183.174L165 185Z" fill="#282828"/>
<path d="M153 189L204 189L189.429 190.917L178.363 210L167.571 190.917L153 189Z" fill="#282828"/>
<path d="M241.341 303.299L178.618 214.034L114.807 303.3L241.341 303.299Z" fill="#880F0F"/>
<path d="M192 351L166 350.999L173.428 346.526L179.069 302L184.571 346.526L192 351Z" fill="#282828"/>
<path d="M178.474 303.299H114.807L146.948 329.306L178.474 303.299Z" fill="#880F0F"/>
<path d="M241.341 303.3H179.303L209.674 329.306L241.341 303.3Z" fill="#880F0F"/>
<path d="M32.1399 70.9998V50.1798H39.4599C45.5199 50.1798 50.4999 45.3198 50.4999 39.2598C50.4999 36.3198 49.2999 33.6198 47.2599 31.5198C45.1599 29.4198 42.3999 28.2798 39.4599 28.2798H24.1599V49.6398V70.9998H32.1399ZM32.1399 42.3198V36.1398H39.4599C41.0799 36.1398 42.4599 37.5798 42.4599 39.2598C42.4599 40.9398 41.1399 42.3198 39.4599 42.3198H32.1399Z" fill="#880F0F"/>
<path d="M38.0195 101V97.0399H28.2395V90.6799H36.9995V86.6899H28.2395V83.5399H38.2895V79.6399H24.2195V101H38.0195Z" fill="#282828"/>
<path d="M41.4095 131L33.4595 120.05C35.3195 119.15 36.5795 117.23 36.5795 115.1C36.5795 113.66 36.0095 112.31 34.9595 111.26C33.9095 110.21 32.5595 109.64 31.1195 109.64H23.4695V131H27.3695V120.56H29.0795L36.6695 131H41.4095ZM27.3695 116.66V113.54H31.1195C31.9595 113.54 32.6795 114.23 32.6795 115.1C32.6795 115.97 31.9595 116.66 31.1195 116.66H27.3695Z" fill="#282828"/>
<path d="M33.7296 161.33C35.4696 161.33 37.1796 160.94 38.7096 160.16C40.2696 159.38 41.5896 158.27 42.6396 156.86L43.1196 156.26L39.9396 153.92L39.4895 154.49C38.1095 156.32 36.0096 157.37 33.7296 157.37C29.7696 157.37 26.5296 154.13 26.5296 150.14C26.5296 146.18 29.7696 142.97 33.7296 142.97C36.0396 142.97 38.1395 144.02 39.4895 145.85L39.9396 146.45L43.1496 144.08L42.6695 143.48C41.6495 142.1 40.2695 140.93 38.7395 140.18C37.2095 139.4 35.4696 138.98 33.7296 138.98C27.5796 138.98 22.5396 143.99 22.5396 150.14C22.5396 151.67 22.8396 153.11 23.4396 154.49C23.9796 155.84 24.7896 157.04 25.8396 158.06C26.8596 159.08 28.0596 159.89 29.3796 160.46C30.7596 161.03 32.2296 161.33 33.7296 161.33Z" fill="#282828"/>
<path d="M33.7595 191V180.44L41.4695 169.64H36.5795L31.7495 176.39L26.9195 169.64H21.9995L29.7095 180.44V191H33.7595Z" fill="#282828"/>
<path d="M329.57 389.609V410.429H322.25C316.19 410.429 311.21 415.289 311.21 421.349C311.21 424.289 312.41 426.989 314.45 429.089C316.55 431.189 319.31 432.329 322.25 432.329H337.55V389.609H329.57ZM329.57 418.289V424.469H322.25C320.63 424.469 319.25 423.029 319.25 421.349C319.25 419.669 320.57 418.289 322.25 418.289H329.57Z" fill="#880F0F"/>
<path d="M323.75 359.609V363.569H333.53V369.929H324.77V373.919H333.53V377.069H323.48V380.969H337.55V359.609H323.75Z" fill="#282828"/>
<path d="M320.36 329.609L328.31 340.559C326.45 341.459 325.19 343.379 325.19 345.509C325.19 346.949 325.76 348.299 326.81 349.349C327.86 350.399 329.21 350.969 330.65 350.969H338.3V329.609H334.4V340.049H332.69L325.1 329.609H320.36ZM334.4 343.949V347.069H330.65C329.81 347.069 329.09 346.379 329.09 345.509C329.09 344.639 329.81 343.949 330.65 343.949H334.4Z" fill="#282828"/>
<path d="M328.04 299.279C326.3 299.279 324.59 299.669 323.06 300.449C321.5 301.229 320.18 302.339 319.13 303.749L318.65 304.349L321.83 306.689L322.28 306.119C323.66 304.289 325.76 303.239 328.04 303.239C332 303.239 335.24 306.479 335.24 310.469C335.24 314.429 332 317.639 328.04 317.639C325.73 317.639 323.63 316.589 322.28 314.759L321.83 314.159L318.62 316.529L319.1 317.129C320.12 318.509 321.5 319.679 323.03 320.429C324.56 321.209 326.3 321.629 328.04 321.629C334.19 321.629 339.23 316.619 339.23 310.469C339.23 308.939 338.93 307.499 338.33 306.119C337.79 304.769 336.98 303.569 335.93 302.549C334.91 301.529 333.71 300.719 332.39 300.149C331.01 299.579 329.54 299.279 328.04 299.279Z" fill="#282828"/>
<path d="M328.01 269.609V280.169L320.3 290.969H325.19L330.02 284.219L334.85 290.969H339.77L332.06 280.169V269.609H328.01Z" fill="#282828"/>
</g>
<defs>
<clipPath id="clip0_730_75">
<rect width="360" height="457" fill="white"/>
</clipPath>
</defs>
</svg>
