<svg width="30" height="30" viewBox="0 0 30 30" fill="none" xmlns="http://www.w3.org/2000/svg">
<path d="M26.7857 0H3.21429C1.43973 0 0 1.43973 0 3.21429V26.7857C0 28.5603 1.43973 30 3.21429 30H26.7857C28.5603 30 30 28.5603 30 26.7857V3.21429C30 1.43973 28.5603 0 26.7857 0ZM18.5692 25.6942C18.0067 25.7946 17.7991 25.4464 17.7991 25.1585C17.7991 24.7969 17.8125 22.9487 17.8125 21.4554C17.8125 20.4107 17.4643 19.7478 17.0558 19.3996C19.5335 19.125 22.1451 18.7835 22.1451 14.5045C22.1451 13.2857 21.7098 12.6763 21 11.8929C21.1138 11.6049 21.4955 10.4196 20.8862 8.87946C19.9554 8.59152 17.8259 10.0781 17.8259 10.0781C16.942 9.83036 15.9844 9.70312 15.0402 9.70312C14.096 9.70312 13.1384 9.83036 12.2545 10.0781C12.2545 10.0781 10.125 8.59152 9.1942 8.87946C8.58482 10.4129 8.95982 11.5982 9.08036 11.8929C8.37054 12.6763 8.03571 13.2857 8.03571 14.5045C8.03571 18.7634 10.5335 19.125 13.0112 19.3996C12.6897 19.6875 12.4018 20.183 12.3013 20.8929C11.6652 21.1808 10.0379 21.6763 9.06696 19.9621C8.45759 18.904 7.35938 18.817 7.35938 18.817C6.27455 18.8036 7.28571 19.5 7.28571 19.5C8.00893 19.8348 8.51786 21.1205 8.51786 21.1205C9.16741 23.1094 12.2746 22.4397 12.2746 22.4397C12.2746 23.3705 12.2879 24.8839 12.2879 25.1585C12.2879 25.4464 12.0871 25.7946 11.5179 25.6942C7.09821 24.2143 4.00446 20.0089 4.00446 15.0937C4.00446 8.94643 8.70536 4.27902 14.8527 4.27902C21 4.27902 25.9821 8.94643 25.9821 15.0937C25.9888 20.0089 22.9888 24.221 18.5692 25.6942Z" fill="#F1F1F1"/>
</svg>
