<svg width="151" height="36" viewBox="0 0 151 36" fill="none" xmlns="http://www.w3.org/2000/svg">
<g style="mix-blend-mode:difference">
<path d="M7.488 27L7.488 14.508H11.88C15.516 14.508 18.504 11.592 18.504 7.956C18.504 6.192 17.784 4.572 16.56 3.312C15.3 2.052 13.644 1.368 11.88 1.368L2.7 1.368L2.7 27H7.488ZM7.488 9.792L7.488 6.084L11.88 6.084C12.852 6.084 13.68 6.948 13.68 7.956C13.68 8.964 12.888 9.792 11.88 9.792H7.488ZM39.5227 27V22.248L27.7867 22.248V14.616H38.2987V9.828H27.7867V6.048L39.8467 6.048V1.368L22.9627 1.368L22.9627 27L39.5227 27ZM65.6336 27L56.0936 13.86C58.3256 12.78 59.8376 10.476 59.8376 7.92C59.8376 6.192 59.1536 4.572 57.8936 3.312C56.6336 2.052 55.0136 1.368 53.2856 1.368L44.1056 1.368L44.1056 27H48.7856L48.7856 14.472L50.8376 14.472L59.9456 27H65.6336ZM48.7856 9.792V6.048L53.2856 6.048C54.2936 6.048 55.1576 6.876 55.1576 7.92C55.1576 8.964 54.2936 9.792 53.2856 9.792L48.7856 9.792ZM78.4958 27.396C80.5838 27.396 82.6358 26.928 84.4718 25.992C86.3438 25.056 87.9278 23.724 89.1878 22.032L89.7638 21.312L85.9478 18.504L85.4078 19.188C83.7518 21.384 81.2318 22.644 78.4958 22.644C73.7438 22.644 69.8558 18.756 69.8558 13.968C69.8558 9.216 73.7438 5.364 78.4958 5.364C81.2678 5.364 83.7878 6.624 85.4078 8.82L85.9478 9.54L89.7998 6.696L89.2238 5.976C87.9998 4.32 86.3438 2.916 84.5078 2.016C82.6718 1.08 80.5838 0.575999 78.4958 0.575999C71.1158 0.575999 65.0678 6.588 65.0678 13.968C65.0678 15.804 65.4278 17.532 66.1478 19.188C66.7958 20.808 67.7678 22.248 69.0278 23.472C70.2518 24.696 71.6918 25.668 73.2758 26.352C74.9318 27.036 76.6958 27.396 78.4958 27.396ZM105.04 27V14.328L114.292 1.368L108.424 1.368L102.628 9.468L96.8316 1.368L90.9276 1.368L100.18 14.328V27H105.04ZM147.236 27V1.368L142.412 1.368V18.144L131.072 1.368L126.392 1.368V27H131.216V10.188L142.592 27L147.236 27Z" fill="#F3F3F3"/>
</g>
</svg>
