<svg width="32" height="32" viewBox="0 0 32 32" fill="none" xmlns="http://www.w3.org/2000/svg">
<path fill-rule="evenodd" clip-rule="evenodd" d="M0 16C0 24.8365 7.16344 32 16 32C24.8365 32 32 24.8365 32 16C32 7.16343 24.8365 0 16 0C7.16343 0 0 7.16344 0 16ZM13.8206 23.8793L24.6467 16.2722L13.8206 8.53325L13.8206 16.2744L8.5332 15.1272L7.98759 13.5757L7.98757 19.006L8.5332 17.4545L13.8206 16.3356L13.8206 23.8793ZM13.8206 16.3356L13.9635 16.3054L13.8206 16.2744V16.3356ZM13.8206 8.53333L13.8205 16.255L10.6665 12.4314L13.8206 8.53333ZM13.8206 23.8793L13.8206 16.3554L10.6665 20.0388L13.8206 23.8793Z" fill="#F3F3F3"/>
</svg>
