<svg width="35" height="35" viewBox="0 0 35 35" fill="none" xmlns="http://www.w3.org/2000/svg">
<path d="M4.25179e-05 17.5C4.28251e-05 7.83505 7.83505 4.10982e-05 17.5 4.14054e-05C27.165 4.17126e-05 35 7.83505 35 17.5C35 27.165 27.165 35 17.5 35C7.83505 35 4.22107e-05 27.165 4.25179e-05 17.5Z" fill="#ECECEC"/>
<path d="M8.88218 15.1165L17.2024 26.9575L25.6669 15.1165L8.88218 15.1165Z" fill="#880F0F"/>
<path d="M14.2123 8.73668L20.1517 8.7367L18.4547 9.33346L17.1661 15.2728L15.9092 9.33346L14.2123 8.73668Z" fill="#880F0F"/>
<path d="M17.2212 15.1165L25.6668 15.1165L21.4032 11.6667L17.2212 15.1165Z" fill="#880F0F"/>
<path d="M8.88215 15.1166L17.1114 15.1166L13.0827 11.6668L8.88215 15.1166Z" fill="#880F0F"/>
</svg>
