<svg width="190" height="38" viewBox="0 0 190 38" fill="none" xmlns="http://www.w3.org/2000/svg">
<g style="mix-blend-mode:difference">
<path d="M46.488 29L46.488 16.508H50.88C54.516 16.508 57.504 13.592 57.504 9.956C57.504 8.192 56.784 6.572 55.56 5.312C54.3 4.052 52.644 3.368 50.88 3.368L41.7 3.368L41.7 29H46.488ZM46.488 11.792V8.084L50.88 8.084C51.852 8.084 52.68 8.948 52.68 9.956C52.68 10.964 51.888 11.792 50.88 11.792H46.488ZM78.5227 29V24.248L66.7867 24.248V16.616H77.2987V11.828H66.7867V8.048L78.8467 8.048V3.368L61.9627 3.368V29L78.5227 29ZM104.634 29L95.0936 15.86C97.3256 14.78 98.8376 12.476 98.8376 9.92C98.8376 8.192 98.1536 6.572 96.8936 5.312C95.6336 4.052 94.0136 3.368 92.2856 3.368L83.1056 3.368V29H87.7856V16.472H89.8376L98.9456 29H104.634ZM87.7856 11.792V8.048L92.2856 8.048C93.2936 8.048 94.1576 8.876 94.1576 9.92C94.1576 10.964 93.2936 11.792 92.2856 11.792L87.7856 11.792ZM117.496 29.396C119.584 29.396 121.636 28.928 123.472 27.992C125.344 27.056 126.928 25.724 128.188 24.032L128.764 23.312L124.948 20.504L124.408 21.188C122.752 23.384 120.232 24.644 117.496 24.644C112.744 24.644 108.856 20.756 108.856 15.968C108.856 11.216 112.744 7.364 117.496 7.364C120.268 7.364 122.788 8.624 124.408 10.82L124.948 11.54L128.8 8.696L128.224 7.976C127 6.32 125.344 4.916 123.508 4.016C121.672 3.08 119.584 2.576 117.496 2.576C110.116 2.576 104.068 8.588 104.068 15.968C104.068 17.804 104.428 19.532 105.148 21.188C105.796 22.808 106.768 24.248 108.028 25.472C109.252 26.696 110.692 27.668 112.276 28.352C113.932 29.036 115.696 29.396 117.496 29.396ZM144.04 29V16.328L153.292 3.368L147.424 3.368L141.628 11.468L135.832 3.368L129.928 3.368L139.18 16.328V29H144.04ZM186.236 29V3.368L181.412 3.368V20.144L170.072 3.368L165.392 3.368V29H170.216V12.188L181.592 29L186.236 29Z" fill="#E9E9E9"/>
<path d="M16 32C7.16348 32 4.22578e-05 24.8365 4.21525e-05 16C4.20471e-05 7.16344 7.16348 4.11087e-06 16 4.0055e-06C24.8366 3.90012e-06 32 7.16344 32 16C32 24.8365 24.8366 32 16 32Z" fill="#E9E9E9"/>
<path d="M13.8208 23.8793L24.6469 16.2722L13.8208 8.53324L13.8208 23.8793Z" fill="black"/>
<path d="M7.98777 19.006L7.98778 13.5757L8.53339 15.1272L13.9637 16.3054L8.53339 17.4545L7.98777 19.006Z" fill="black"/>
<path d="M13.8207 16.255L13.8208 8.53333L10.6667 12.4314L13.8207 16.255Z" fill="black"/>
<path d="M13.8209 23.8793L13.8209 16.3554L10.6668 20.0388L13.8209 23.8793Z" fill="black"/>
</g>
</svg>
